<?xml version="1.0" encoding="UTF-8" standalone="no"?>
<!-- Created with Inkscape (http://www.inkscape.org/) -->

<svg
   xmlns:dc="http://purl.org/dc/elements/1.1/"
   xmlns:cc="http://creativecommons.org/ns#"
   xmlns:rdf="http://www.w3.org/1999/02/22-rdf-syntax-ns#"
   xmlns:svg="http://www.w3.org/2000/svg"
   xmlns="http://www.w3.org/2000/svg"
   xmlns:sodipodi="http://sodipodi.sourceforge.net/DTD/sodipodi-0.dtd"
   xmlns:inkscape="http://www.inkscape.org/namespaces/inkscape"
   width="90mm"
   height="50mm"
   id="svg3331"
   version="1.1"
   inkscape:version="0.92.4 (5da689c313, 2019-01-14)"
   sodipodi:docname="Layer 1.svg">
  <defs
     id="defs3" />
  <sodipodi:namedview
     id="base"
     pagecolor="#ffffff"
     bordercolor="#666666"
     borderopacity="1.0"
     inkscape:pageopacity="0.0"
     inkscape:pageshadow="2"
     inkscape:zoom="1.6970563"
     inkscape:cx="42.506971"
     inkscape:cy="90"
     inkscape:document-units="mm"
     inkscape:current-layer="layer1"
     showgrid="false"
     inkscape:window-width="1920"
     inkscape:window-height="1001"
     inkscape:window-x="-9"
     inkscape:window-y="-9"
     inkscape:window-maximized="1" />
  <metadata
     id="metadata3335">
    <rdf:RDF>
      <cc:Work
         rdf:about="">
        <dc:format>image/svg+xml</dc:format>
        <dc:type
           rdf:resource="http://purl.org/dc/dcmitype/StillImage" />
        <dc:title />
      </cc:Work>
    </rdf:RDF>
  </metadata>
  <g
     inkscape:label="Layer 1"
     inkscape:groupmode="layer"
     id="layer1">
    <rect
       style="fill:#ffffff"
       id="rect3564"
       width="244.28568"
       height="141.07141"
       x="32.242142"
       y="15.884284" />
    <rect
       style="fill:#ffffff"
       id="rect3564-8"
       width="300.85422"
       height="177.60526"
       x="7.4934077"
       y="0.56363678"
       inkscape:export-xdpi="90"
       inkscape:export-ydpi="90"
       inkscape:export-filename="/mnt/HDS72161/jasnau/Documentos/IPBeja/SEPSI/Logotipo/logo_sepsi-en.png" />
    <ellipse
       transform="matrix(1.2315672,0,0,1.2589742,-255.09431,-132.80405)"
       style="fill:#008080;fill-opacity:0.61777775"
       id="path3568"
       cx="328.57144"
       cy="190.21933"
       rx="36.42857"
       ry="50.714287" />
    <ellipse
       transform="matrix(1.2315672,0,0,1.2589742,-255.09431,-132.80405)"
       style="fill:#008080;fill-opacity:0.75555558"
       id="path3570"
       cx="273.92856"
       cy="155.93361"
       rx="37.5"
       ry="32.142857" />
    <ellipse
       id="path3574"
       transform="matrix(1.2315672,0,0,1.2589742,-219.02699,-110.32236)"
       cx="206.42857"
       cy="108.43361"
       rx="17.142857"
       ry="14.642858"
       style="fill:#008080;fill-opacity:0.76000001" />
    <path
       id="_64552752"
       class="fil0"
       d="m 66.157039,65.930914 c -1.754171,0 -3.17982,-1.337018 -3.17982,-2.993274 0,-1.653499 1.425539,-2.992116 3.17982,-2.992116 1.759035,0 3.176225,1.338617 3.176225,2.992116 0,1.656143 -1.41719,2.993274 -3.176225,2.993274 z"
       inkscape:connector-curvature="0"
       style="fill:#84c12a;fill-rule:evenodd" />
    <path
       id="_64551664"
       class="fil0"
       d="m 95.84606,70.123499 c 1.778427,1.669438 1.778316,4.375691 0,6.048628 -1.768616,1.671251 -4.639104,1.671251 -6.412893,0 -1.776511,-1.673051 -1.776634,-4.37919 0,-6.048628 1.506428,-1.418776 4.907931,-1.423245 6.412893,0 z"
       inkscape:connector-curvature="0"
       style="fill:#84c12a;fill-rule:evenodd" />
    <path
       id="_64550576"
       class="fil0"
       d="m 74.405584,76.041257 c -1.772114,1.668392 -4.644289,1.668392 -6.414249,0 -1.775378,-1.670709 -1.775378,-4.37909 0,-6.05097 1.76996,-1.667209 4.642147,-1.667096 6.414249,0 1.773235,1.67188 1.773125,4.380362 0,6.05097 z"
       inkscape:connector-curvature="0"
       style="fill:#84c12a;fill-rule:evenodd" />
    <path
       id="_64544512"
       class="fil1"
       d="m 64.430628,85.438542 c -1.770747,1.671037 -4.641567,1.671037 -6.415036,1.01e-4 -1.769958,-1.672736 -1.769958,-4.378347 0,-6.046727 1.77358,-1.672623 4.644289,-1.672623 6.415036,0 1.775612,1.66838 1.775612,4.377503 0,6.046626 z"
       inkscape:connector-curvature="0"
       style="fill:#884a23;fill-rule:evenodd" />
    <path
       id="_64544032"
       class="fil0"
       d="m 85.262058,77.138063 c 0,1.65764 -1.420465,2.995729 -3.174746,2.995729 -1.751128,-1.14e-4 -3.174968,-1.338076 -3.174968,-2.995616 0,-1.650213 1.42384,-2.99126 3.174968,-2.99126 1.754294,-1.13e-4 3.174746,1.34116 3.174746,2.991147 z"
       inkscape:connector-curvature="0"
       style="fill:#84c12a;fill-rule:evenodd" />
    <path
       id="_64542944"
       class="fil1"
       d="m 85.715411,90.433837 c 0,1.890362 -1.621728,3.422773 -3.628825,3.422773 -2.008465,0 -3.629059,-1.532411 -3.629059,-3.422773 1.1e-4,-1.895121 1.620594,-3.420306 3.629059,-3.420306 2.007208,0 3.628825,1.525285 3.628825,3.420306 z"
       inkscape:connector-curvature="0"
       style="fill:#884a23;fill-rule:evenodd" />
    <path
       id="_64541720"
       class="fil1"
       d="m 78.458302,35.241806 c 0,-1.890551 1.620472,-3.422647 3.628949,-3.422647 2.007208,-1.14e-4 3.628825,1.532083 3.628825,3.422647 0,1.891306 -1.621728,3.420847 -3.628825,3.420847 -2.008465,0 -3.629072,-1.529541 -3.628949,-3.420847 z"
       inkscape:connector-curvature="0"
       style="fill:#884a23;fill-rule:evenodd" />
    <path
       id="_64540632"
       class="fil1"
       d="m 52.054277,66.360589 c -2.00711,0 -3.632113,-1.532625 -3.632113,-3.422861 0,-1.888638 1.625003,-3.420734 3.632113,-3.420734 2.003723,0 3.631425,1.532096 3.631425,3.420734 0,1.890249 -1.627702,3.422861 -3.631425,3.422861 z"
       inkscape:connector-curvature="0"
       style="fill:#884a23;fill-rule:evenodd" />
    <path
       id="_64539544"
       class="fil0"
       d="m 97.546134,59.399205 c 1.749996,0 3.171376,1.33946 3.171376,2.996144 0,1.650956 -1.421479,2.993602 -3.171487,2.993602 -1.75643,-1.01e-4 -3.181292,-1.342545 -3.181292,-2.993602 1.24e-4,-1.656684 1.424751,-2.996144 3.181403,-2.996144 z"
       inkscape:connector-curvature="0"
       style="fill:#84c12a;fill-rule:evenodd" />
    <path
       id="_64538456"
       class="fil0"
       d="m 78.579649,48.1544 c 0,-1.659026 1.418888,-2.996572 3.175534,-2.996572 1.753838,0 3.176557,1.337546 3.176557,2.996572 0,1.648614 -1.422719,2.991272 -3.176557,2.991272 -1.756535,0 -3.175645,-1.342557 -3.175534,-2.991272 z"
       inkscape:connector-curvature="0"
       style="fill:#84c12a;fill-rule:evenodd" />
    <path
       id="_64537368"
       class="fil1"
       d="m 67.559461,38.239549 c -0.691783,-1.571527 0.09729,-3.372905 1.764443,-4.023706 1.671028,-0.648259 3.578294,0.09266 4.272455,1.669865 0.689419,1.568342 -0.102836,3.370891 -1.766819,4.018293 -1.671372,0.649845 -3.582581,-0.09266 -4.270079,-1.664452 z"
       inkscape:connector-curvature="0"
       style="fill:#884a23;fill-rule:evenodd" />
    <path
       id="_64757600"
       class="fil0"
       d="m 89.85972,50.255225 c 1.768383,-1.677948 4.642023,-1.677948 6.418651,1.13e-4 1.770538,1.666668 1.770415,4.369736 0,6.040659 -1.776505,1.673378 -4.650268,1.673492 -6.418762,0 -1.506083,-1.418977 -1.509359,-4.621996 1.24e-4,-6.040772 z"
       inkscape:connector-curvature="0"
       style="fill:#84c12a;fill-rule:evenodd" />
    <path
       id="_64756672"
       class="fil1"
       d="m 55.623409,76.859086 c -1.667186,0.653899 -3.57896,-0.09795 -4.273465,-1.665509 -0.677005,-1.578867 0.09988,-3.366421 1.767151,-4.029775 1.669328,-0.641019 3.580659,0.10525 4.273465,1.673592 0.689073,1.574196 -0.09853,3.375134 -1.767151,4.021692 z"
       inkscape:connector-curvature="0"
       style="fill:#884a23;fill-rule:evenodd" />
    <path
       id="_63948376"
       class="fil1"
       d="m 73.893844,90.356171 c -0.692129,1.572912 -2.605492,2.316323 -4.27663,1.665182 -1.657493,-0.656971 -2.450918,-2.447609 -1.76613,-4.02105 0.691008,-1.570369 2.606059,-2.315996 4.265904,-1.666152 1.676212,0.648787 2.469304,2.451437 1.776856,4.022007 z"
       inkscape:connector-curvature="0"
       style="fill:#884a23;fill-rule:evenodd" />
    <path
       id="_63948184"
       class="fil1"
       d="m 53.466995,55.21892 c -1.665608,-0.650386 -2.459723,-2.452709 -1.766917,-4.026792 0.690885,-1.571955 2.596575,-2.317167 4.268502,-1.664338 1.664696,0.651242 2.459611,2.452821 1.765328,4.019136 -0.689529,1.571641 -2.60469,2.319937 -4.266913,1.671994 z"
       inkscape:connector-curvature="0"
       style="fill:#884a23;fill-rule:evenodd" />
    <path
       id="_63948112"
       class="fil0"
       d="m 81.661547,56.909055 c -0.409188,-0.01259 -1.284401,0.191565 -2.105031,0.200705 -1.05054,-0.0243 -2.405793,0.09379 -3.485668,-0.875327 -0.638876,-0.601273 -1.074789,-1.206689 -1.374318,-1.832311 -0.479006,-1.16756 -0.484881,-2.25379 -0.488156,-2.433144 v -0.005 c -0.0086,-0.897649 -0.36936,-1.797539 -1.092043,-2.47216 C 72.900732,49.286756 72.66134,49.122397 72.412465,48.979 l 0.0074,-0.0063 c 0,0 -0.969539,-0.692914 -2.483529,-0.515915 -3.376121,0.394185 -3.537457,-1.97528 -3.140793,-4.374406 0.02229,-0.135428 0.01564,-0.261414 0.02328,-0.392271 0.08202,-1.068592 -0.262644,-2.148882 -1.031807,-3.022836 -0.157837,-0.19805 -0.270772,-0.310942 -0.270772,-0.310942 -1.770193,-1.670293 -4.642368,-1.666793 -6.412339,0.0025 -1.772902,1.670294 -1.772902,4.375478 0,6.043543 1.23e-4,0 1.769959,1.935207 4.853335,1.040731 2.770533,-0.803565 3.271547,1.342545 2.890907,3.750409 -0.0049,0.02442 -0.0025,0.04444 -0.0062,0.06874 -0.04975,0.232595 -0.07894,0.468917 -0.07894,0.706083 1.11e-4,0.293832 0.05296,0.584894 0.130744,0.871285 0.20274,0.842909 0.629515,1.247719 0.629515,1.247719 l 0.0086,-0.01007 c 0.102836,0.127672 0.20013,0.256302 0.323324,0.373134 0.519635,0.507191 1.558783,0.835254 2.628387,0.829841 0.06355,0 0.107392,0.0025 0.107392,0.0025 0.181509,-0.01007 0.722918,-0.03852 1.199682,-0.03852 0.277078,0.0038 0.494585,0.0025 0.797378,0.06496 0.744803,0.19178 1.570273,0.669623 2.190318,1.55409 0.660773,0.958898 0.757217,2.111048 0.765468,3.062807 0,0.539295 -0.04175,1.015023 -0.0782,1.336276 l -0.0062,0.05779 -0.0086,0.04532 c -0.114413,0.427144 -0.196644,1.11856 -0.195179,1.58982 0,3.340902 2.861694,6.043214 6.407832,6.043214 3.558318,-1.01e-4 6.424519,-2.704553 6.424519,-6.043214 0,-3.338787 -2.866201,-6.04674 -6.424519,-6.04674 z"
       inkscape:connector-curvature="0"
       style="fill:#84c12a;fill-rule:evenodd" />
    <path
       id="_64769600"
       class="fil1"
       d="m 60.151228,44.311142 c -0.529894,-1.205304 0.07574,-2.587294 1.354588,-3.086401 1.282037,-0.497408 2.744584,0.07075 3.277644,1.280995 0.528428,1.202647 -0.07956,2.585706 -1.35582,3.082258 -1.282604,0.498465 -2.748193,-0.07088 -3.276388,-1.276852 z"
       inkscape:connector-curvature="0"
       style="fill:#884a23;fill-rule:evenodd" />
    <text
       xml:space="preserve"
       style="font-style:normal;font-weight:normal;line-height:0%;font-family:sans-serif;letter-spacing:0px;word-spacing:0px;fill:#008080;fill-opacity:1;stroke:none"
       x="124.38006"
       y="98.607407"
       id="text3616-1"
       transform="scale(0.98905541,1.0110657)"><tspan
         sodipodi:role="line"
         id="tspan3618-3"
         x="124.38006"
         y="98.607407"
         style="font-size:49.80781174px;line-height:1.25;font-family:sans-serif">S</tspan><tspan
         sodipodi:role="line"
         x="124.38006"
         y="119.91612"
         style="font-size:49.80781174px;line-height:1.25;font-family:sans-serif"
         id="tspan40" /></text>
    <text
       xml:space="preserve"
       style="font-style:normal;font-weight:normal;line-height:0%;font-family:sans-serif;letter-spacing:0px;word-spacing:0px;fill:#008080;fill-opacity:1;stroke:none"
       x="154.16888"
       y="99.773018"
       id="text3616-3"
       transform="scale(0.98905541,1.0110657)"><tspan
         sodipodi:role="line"
         id="tspan3618-7"
         x="154.16888"
         y="99.773018"
         style="font-size:49.80781174px;line-height:1.25;font-family:sans-serif">E</tspan></text>
    <text
       xml:space="preserve"
       style="font-style:normal;font-weight:normal;line-height:0%;font-family:sans-serif;letter-spacing:0px;word-spacing:0px;fill:#008080;fill-opacity:1;stroke:none"
       x="185.74501"
       y="99.773018"
       id="text3616-5"
       transform="scale(0.98905541,1.0110657)"><tspan
         sodipodi:role="line"
         id="tspan3618-77"
         x="185.74501"
         y="99.773018"
         style="font-size:49.80781174px;line-height:1.25;font-family:sans-serif">P</tspan></text>
    <text
       xml:space="preserve"
       style="font-style:normal;font-weight:normal;line-height:0%;font-family:sans-serif;letter-spacing:0px;word-spacing:0px;fill:#008080;fill-opacity:1;stroke:none"
       x="215.53381"
       y="99.773026"
       id="text3616-0"
       transform="scale(0.98905541,1.0110657)"><tspan
         sodipodi:role="line"
         id="tspan3618-4"
         x="215.53381"
         y="99.773026"
         style="font-size:49.80781174px;line-height:1.25;font-family:sans-serif">S</tspan></text>
    <text
       xml:space="preserve"
       style="font-style:normal;font-weight:normal;line-height:0%;font-family:sans-serif;letter-spacing:0px;word-spacing:0px;fill:#008080;fill-opacity:1;stroke:none"
       x="247.10997"
       y="99.773018"
       id="text3616-2"
       transform="scale(0.98905541,1.0110657)"><tspan
         sodipodi:role="line"
         id="tspan3618-1"
         x="247.10997"
         y="99.773018"
         style="font-size:49.80781174px;line-height:1.25;font-family:sans-serif">I</tspan></text>
    <text
       xml:space="preserve"
       style="font-style:normal;font-weight:normal;line-height:0%;font-family:sans-serif;letter-spacing:0px;word-spacing:0px;fill:#008080;fill-opacity:1;stroke:none"
       x="126.49529"
       y="118.07346"
       id="text3662-2"
       transform="scale(0.98905541,1.0110657)"><tspan
         sodipodi:role="line"
         x="126.49529"
         y="118.07346"
         id="tspan3668-3"
         style="font-size:14.94234276px;line-height:1.25;font-family:sans-serif"><tspan
   style="font-weight:bold;font-family:sans-serif"
   id="tspan3022-3">E</tspan>lectronic </tspan></text>
    <text
       xml:space="preserve"
       style="font-style:normal;font-weight:normal;line-height:0%;font-family:sans-serif;letter-spacing:0px;word-spacing:0px;fill:#008080;fill-opacity:1;stroke:none"
       x="206.32932"
       y="118.65627"
       id="text3662-9"
       transform="scale(0.98905541,1.0110657)"><tspan
         sodipodi:role="line"
         x="206.32932"
         y="118.65627"
         id="tspan3668-1"
         style="font-size:14.94234276px;line-height:1.25;font-family:sans-serif"><tspan
   style="font-weight:bold;font-family:sans-serif"
   id="tspan3024-0">S</tspan>ystems</tspan></text>
    <text
       xml:space="preserve"
       style="font-style:normal;font-weight:normal;line-height:0%;font-family:sans-serif;letter-spacing:0px;word-spacing:0px;fill:#008080;fill-opacity:1;stroke:none"
       x="126.49529"
       y="123.90153"
       id="text3662-4"
       transform="scale(0.98905541,1.0110657)"><tspan
         sodipodi:role="line"
         id="tspan3664-2"
         x="126.49529"
         y="127.01871"
         style="font-size:14.94234276px;line-height:1.25;font-family:sans-serif" /><tspan
         sodipodi:role="line"
         x="126.49529"
         y="137.12199"
         id="tspan3668-5"
         style="font-size:14.94234276px;line-height:1.25;font-family:sans-serif"><tspan
   style="font-weight:bold;font-family:sans-serif"
   id="tspan3028-7">S</tspan>ignal</tspan></text>
    <text
       xml:space="preserve"
       style="font-style:normal;font-weight:normal;line-height:0%;font-family:sans-serif;letter-spacing:0px;word-spacing:0px;fill:#008080;fill-opacity:1;stroke:none"
       x="177.73206"
       y="137.30608"
       id="text3662-5"
       transform="scale(0.98905541,1.0110657)"><tspan
         sodipodi:role="line"
         x="177.73206"
         y="137.30608"
         id="tspan3668-33"
         style="font-size:14.94234276px;line-height:1.25;font-family:sans-serif"><tspan
   style="font-weight:bold;font-family:sans-serif"
   id="tspan3022-7">P</tspan>rocessing</tspan></text>
    <text
       xml:space="preserve"
       style="font-style:normal;font-weight:normal;line-height:0%;font-family:sans-serif;letter-spacing:0px;word-spacing:0px;fill:#008080;fill-opacity:1;stroke:none"
       x="126.49528"
       y="141.38573"
       id="text3662-56"
       transform="scale(0.98905541,1.0110657)"><tspan
         sodipodi:role="line"
         x="126.49528"
         y="144.50291"
         id="tspan3666-2"
         style="font-size:14.94234276px;line-height:1.25;font-family:sans-serif" /><tspan
         sodipodi:role="line"
         x="126.49528"
         y="154.6062"
         id="tspan3668-51"
         style="font-size:14.94234276px;line-height:1.25;font-family:sans-serif"><tspan
   style="font-weight:bold;font-family:sans-serif"
   id="tspan3026-7">I</tspan>nstrumentation</tspan></text>
  </g>
</svg>
